<?xml version="1.0" encoding="UTF-8"?>
<svg version="1.1" xmlns="http://www.w3.org/2000/svg" width="112" height="81">
<path d="M0 0 C0.91613068 -0.0038269 1.83226135 -0.00765381 2.77615356 -0.01159668 C4.71454974 -0.01431894 6.65298246 -0.00693578 8.59130859 0.00976562 C11.55259666 0.03112223 14.51144503 0.01000039 17.47265625 -0.015625 C19.35677618 -0.01298082 21.24089459 -0.00785397 23.125 0 C24.00848114 -0.00809692 24.89196228 -0.01619385 25.80221558 -0.02453613 C29.95419554 0.0384756 32.14184425 0.18334041 35.73095703 2.43945312 C39.21086723 6.14512931 38.81588144 9.3141937 38.7578125 14.15625 C38.75330078 14.86265625 38.74878906 15.5690625 38.74414062 16.296875 C38.73235125 18.04170275 38.71441574 19.786487 38.6953125 21.53125 C45.91900966 18.08959324 52.75247334 14.38309455 59.41796875 9.94921875 C62.7019909 7.90445024 65.3368898 7.37575609 69.1328125 7.34375 C69.89464844 7.32957031 70.65648438 7.31539062 71.44140625 7.30078125 C73.92878565 7.55512334 75.54339356 8.29107804 77.6953125 9.53125 C77.81272064 12.40774948 77.7721641 13.91898319 76.6953125 16.53125 C73.75207016 19.43294069 70.22233356 21.40767235 66.6953125 23.53125 C65.19741894 24.44579988 63.70006169 25.3612285 62.203125 26.27734375 C59.81779476 27.73651335 57.43031443 29.19038387 55.02954102 30.62402344 C46.27192487 35.87293399 46.27192487 35.87293399 39.6953125 43.53125 C40.02202153 45.53234278 40.35508464 47.53241131 40.6953125 49.53125 C38.51447793 52.84991131 36.7224455 53.52271125 32.921875 54.71875 C28.10286235 56.47814165 25.61574857 59.38102777 22.5078125 63.34375 C21.7662793 64.24963867 21.7662793 64.24963867 21.00976562 65.17382812 C19.55883436 66.94973741 18.12594096 68.73896826 16.6953125 70.53125 C13.68495112 74.27719403 11.13642926 77.42756311 6.6953125 79.53125 C5.7053125 79.53125 4.7153125 79.53125 3.6953125 79.53125 C4.35843607 75.88969003 5.92244754 73.24400399 7.85546875 70.109375 C8.48388672 69.08457031 9.11230469 68.05976562 9.75976562 67.00390625 C10.41912109 65.94042969 11.07847656 64.87695312 11.7578125 63.78125 C12.42103516 62.70230469 13.08425781 61.62335937 13.76757812 60.51171875 C15.40549026 57.84863859 17.04821531 55.18865551 18.6953125 52.53125 C17.68331787 52.92449463 17.68331787 52.92449463 16.65087891 53.32568359 C13.54385056 54.52756402 10.43217891 55.71695522 7.3203125 56.90625 C6.25941406 57.31875 5.19851562 57.73125 4.10546875 58.15625 C-1.6860907 60.35917445 -7.19382603 62.11610486 -13.33520508 63.01220703 C-16.43269591 63.82852853 -17.57232452 65.96478632 -19.3046875 68.53125 C-22.0546875 69.84375 -22.0546875 69.84375 -24.3046875 70.53125 C-23.9953125 69.78875 -23.6859375 69.04625 -23.3671875 68.28125 C-22.22422336 65.32298987 -21.3046875 62.71190015 -21.3046875 59.53125 C-19.65234375 58.29443359 -19.65234375 58.29443359 -17.3671875 56.9296875 C-16.14902344 56.19492188 -16.14902344 56.19492188 -14.90625 55.4453125 C-13.61847656 54.68347656 -13.61847656 54.68347656 -12.3046875 53.90625 C-11.44617187 53.390625 -10.58765625 52.875 -9.703125 52.34375 C-7.57412516 51.0663501 -5.44127554 49.79590303 -3.3046875 48.53125 C-3.70300781 48.10714844 -4.10132812 47.68304688 -4.51171875 47.24609375 C-12.06550992 38.88362421 -12.79980686 32.55683646 -12.69580078 21.40551758 C-12.67964289 19.3380416 -12.69573954 17.27249648 -12.71484375 15.20507812 C-12.71097656 13.89603516 -12.70710938 12.58699219 -12.703125 11.23828125 C-12.69974121 10.0469458 -12.69635742 8.85561035 -12.69287109 7.62817383 C-11.6748887 -0.4932769 -7.02452424 -0.06408467 0 0 Z " fill="#D2DBDF" transform="translate(34.3046875,1.46875)"/>
<path d="M0 0 C0.91613068 -0.0038269 1.83226135 -0.00765381 2.77615356 -0.01159668 C4.71454974 -0.01431894 6.65298246 -0.00693578 8.59130859 0.00976562 C11.55259666 0.03112223 14.51144503 0.01000039 17.47265625 -0.015625 C19.35677618 -0.01298082 21.24089459 -0.00785397 23.125 0 C24.00848114 -0.00809692 24.89196228 -0.01619385 25.80221558 -0.02453613 C29.95419554 0.0384756 32.14184425 0.18334041 35.73095703 2.43945312 C39.21086723 6.14512931 38.81588144 9.3141937 38.7578125 14.15625 C38.75330078 14.86265625 38.74878906 15.5690625 38.74414062 16.296875 C38.73235125 18.04170275 38.71441574 19.786487 38.6953125 21.53125 C37.6894812 21.45438965 37.6894812 21.45438965 36.66333008 21.37597656 C33.61263001 21.15545038 30.56075537 20.96805274 27.5078125 20.78125 C26.45271484 20.70003906 25.39761719 20.61882813 24.31054688 20.53515625 C22.77817383 20.44814453 22.77817383 20.44814453 21.21484375 20.359375 C19.80875854 20.2651123 19.80875854 20.2651123 18.37426758 20.16894531 C14.98957884 20.39281462 14.98957884 20.39281462 10.6953125 24.53125 C14.3253125 27.17125 17.9553125 29.81125 21.6953125 32.53125 C19.98641978 37.65792817 14.88557654 39.5811156 10.4453125 42.34375 C9.49011719 42.96701172 8.53492187 43.59027344 7.55078125 44.23242188 C6.62394531 44.81185547 5.69710937 45.39128906 4.7421875 45.98828125 C3.89495117 46.52428955 3.04771484 47.06029785 2.17480469 47.61254883 C-0.3046875 48.53125 -0.3046875 48.53125 -3.00976562 47.80297852 C-5.58455649 46.3761609 -6.84648666 45.03874064 -8.5546875 42.65625 C-9.05484375 41.97820313 -9.555 41.30015625 -10.0703125 40.6015625 C-13.45461795 34.925354 -12.52690027 28.02650105 -12.54492188 21.63183594 C-12.55465607 19.53801159 -12.58571965 17.44515801 -12.6171875 15.3515625 C-12.62371577 14.0156308 -12.62896693 12.67969212 -12.6328125 11.34375 C-12.6421582 10.13332031 -12.65150391 8.92289063 -12.66113281 7.67578125 C-12.3046875 4.53125 -12.3046875 4.53125 -11.36572266 2.13867188 C-7.9388683 -0.53396601 -4.21910052 -0.03849081 0 0 Z " fill="#FDF0D9" transform="translate(34.3046875,1.46875)"/>
<path d="M0 0 C0 3.69859196 -0.79844389 4.22773143 -3.25 6.875 C-3.88421875 7.58140625 -4.5184375 8.2878125 -5.171875 9.015625 C-6.59991817 10.56572314 -8.04646087 12.09878391 -9.5 13.625 C-11.50280021 16.79610034 -10.61161298 18.40677373 -10 22 C-12.18083457 25.31866131 -13.972867 25.99146125 -17.7734375 27.1875 C-22.59245015 28.94689165 -25.07956393 31.84977777 -28.1875 35.8125 C-28.68185547 36.41642578 -29.17621094 37.02035156 -29.68554688 37.64257812 C-31.13647814 39.41848741 -32.56937154 41.20771826 -34 43 C-37.01036138 46.74594403 -39.55888324 49.89631311 -44 52 C-44.99 52 -45.98 52 -47 52 C-46.34054949 48.36422597 -44.78403759 45.75587765 -42.83203125 42.640625 C-42.18556641 41.60679688 -41.53910156 40.57296875 -40.87304688 39.5078125 C-40.19306641 38.43273437 -39.51308594 37.35765625 -38.8125 36.25 C-38.15185547 35.19039062 -37.49121094 34.13078125 -36.81054688 33.0390625 C-34.90400079 30.00515106 -32.96346349 26.99732947 -31 24 C-30.50741699 23.23139648 -30.01483398 22.46279297 -29.50732422 21.67089844 C-25.74234426 16.1762046 -21.19380518 13.09721362 -15.5 9.75 C-13.84346619 8.74525943 -12.18720984 7.74006126 -10.53125 6.734375 C-9.36722656 6.03731445 -9.36722656 6.03731445 -8.1796875 5.32617188 C-5.39399762 3.63129425 -2.69382252 1.83669717 0 0 Z " fill="#059CC5" transform="translate(85,29)"/>
<path d="M0 0 C1.68222656 0.14018555 1.68222656 0.14018555 3.3984375 0.28320312 C5.161875 0.43885742 5.161875 0.43885742 6.9609375 0.59765625 C8.14429687 0.69755859 9.32765625 0.79746094 10.546875 0.90039062 C13.47704026 1.14850946 16.40664347 1.40198654 19.3359375 1.66015625 C16.1123367 4.98220756 12.74683038 7.57865437 8.8359375 10.03515625 C8.26746094 10.41542969 7.69898437 10.79570313 7.11328125 11.1875 C5.4296875 12.24609375 5.4296875 12.24609375 2.3359375 13.66015625 C0.2578125 13.11328125 0.2578125 13.11328125 -1.6640625 11.66015625 C-2.51484375 11.09039062 -3.365625 10.520625 -4.2421875 9.93359375 C-5.12390625 9.30710937 -6.005625 8.680625 -6.9140625 8.03515625 C-7.80609375 7.40351563 -8.698125 6.771875 -9.6171875 6.12109375 C-10.63039062 5.39792969 -10.63039062 5.39792969 -11.6640625 4.66015625 C-7.50602761 0.3635202 -5.97446988 -0.51295954 0 0 Z " fill="#0C9EC6" transform="translate(55.6640625,21.33984375)"/>
<path d="M0 0 C5.68596323 1.3639492 11.14860264 3.54801866 16.60546875 5.625 C16.60546875 6.285 16.60546875 6.945 16.60546875 7.625 C14.375 9.38671875 14.375 9.38671875 11.41796875 11.3125 C9.97357422 12.27736328 9.97357422 12.27736328 8.5 13.26171875 C5.60546875 14.625 5.60546875 14.625 3.07421875 14.5859375 C-0.02906818 13.37801252 -2.16031888 11.70173839 -4.70703125 9.5625 C-5.59003906 8.82902344 -6.47304687 8.09554687 -7.3828125 7.33984375 C-8.04667969 6.77394531 -8.71054688 6.20804688 -9.39453125 5.625 C-9.08203125 3.75 -9.08203125 3.75 -8.39453125 1.625 C-5.0892588 -0.57851496 -3.81731424 -0.57295523 0 0 Z " fill="#019AC4" transform="translate(9.39453125,45.375)"/>
<path d="M0 0 C1.32 2.64 2.64 5.28 4 8 C1 10 1 10 -2 10 C-3.95003686 7.49280976 -5.08135097 5.9762116 -4.8125 2.75 C-3.67433137 0.29855987 -2.65058539 0 0 0 Z " fill="#D5D6DB" transform="translate(94,16)"/>
<path d="M0 0 C1.5625 1.25 1.5625 1.25 3 3 C3 5 3 5 2 7 C-1.45877943 9.69016178 -3.70932802 10.14398228 -8 10 C-7.04367001 8.70684939 -6.08486149 7.41553147 -5.125 6.125 C-4.59132813 5.40570313 -4.05765625 4.68640625 -3.5078125 3.9453125 C-2 2 -2 2 0 0 Z " fill="#CFD4D9" transform="translate(72,46)"/>
<path d="M0 0 C0 3.70316138 -0.95462307 4.67261451 -3.1875 7.5625 C-3.77917969 8.34753906 -4.37085938 9.13257812 -4.98046875 9.94140625 C-7.19861597 12.20245767 -9.00909204 13.04435583 -12 14 C-10.87548273 11.0280615 -9.77706209 8.66559313 -8 6 C-7.34 6 -6.68 6 -6 6 C-5.67 5.01 -5.34 4.02 -5 3 C-2.4375 1.3125 -2.4375 1.3125 0 0 Z " fill="#0E9FC7" transform="translate(22,58)"/>
<path d="M0 0 C1.4540625 0.0309375 1.4540625 0.0309375 2.9375 0.0625 C2.9375 0.7225 2.9375 1.3825 2.9375 2.0625 C-2.47426471 6.0625 -2.47426471 6.0625 -5.0625 6.0625 C-3.98897059 0.08140756 -3.98897059 0.08140756 0 0 Z " fill="#1FA4C9" transform="translate(104.0625,9.9375)"/>
</svg>
